<svg xmlns="http://www.w3.org/2000/svg" viewBox="0 0 500 500"><g id="freepik--background-complete--inject-51"><rect y="382.4" width="500" height="0.25" style="fill:#ebebeb"></rect><rect x="416.78" y="398.49" width="33.12" height="0.25" style="fill:#ebebeb"></rect><rect x="322.53" y="401.21" width="8.69" height="0.25" style="fill:#ebebeb"></rect><rect x="396.59" y="389.21" width="19.19" height="0.25" style="fill:#ebebeb"></rect><rect x="52.46" y="390.89" width="43.19" height="0.25" style="fill:#ebebeb"></rect><rect x="104.56" y="390.89" width="6.33" height="0.25" style="fill:#ebebeb"></rect><rect x="131.47" y="395.11" width="93.68" height="0.25" style="fill:#ebebeb"></rect><path d="M237,337.8H43.91a5.71,5.71,0,0,1-5.7-5.71V60.66A5.71,5.71,0,0,1,43.91,55H237a5.71,5.71,0,0,1,5.71,5.71V332.09A5.71,5.71,0,0,1,237,337.8ZM43.91,55.2a5.46,5.46,0,0,0-5.45,5.46V332.09a5.46,5.46,0,0,0,5.45,5.46H237a5.47,5.47,0,0,0,5.46-5.46V60.66A5.47,5.47,0,0,0,237,55.2Z" style="fill:#ebebeb"></path><path d="M453.31,337.8H260.21a5.72,5.72,0,0,1-5.71-5.71V60.66A5.72,5.72,0,0,1,260.21,55h193.1A5.71,5.71,0,0,1,459,60.66V332.09A5.71,5.71,0,0,1,453.31,337.8ZM260.21,55.2a5.47,5.47,0,0,0-5.46,5.46V332.09a5.47,5.47,0,0,0,5.46,5.46h193.1a5.47,5.47,0,0,0,5.46-5.46V60.66a5.47,5.47,0,0,0-5.46-5.46Z" style="fill:#ebebeb"></path><polygon points="99.48 143.76 136.27 122.36 164.62 122.36 202.02 142.75 202.02 281.47 99.48 281.47 99.48 143.76" style="fill:#e0e0e0"></polygon><path d="M203.08,281.47H99.48V143.76l1.06-1a72.86,72.86,0,0,1,50.74-20.39h0A72.86,72.86,0,0,1,202,142.75l1.06,1Zm-96.73-6.87h89.86V146.71a66.48,66.48,0,0,0-89.86,0Z" style="fill:#fafafa"></path><polygon points="148.7 275.43 153.86 275.43 153.86 229.39 197.51 229.39 197.51 224.24 153.86 224.24 153.86 177.15 197.51 177.15 197.51 171.99 153.86 171.99 153.86 128.34 148.7 128.34 148.7 171.99 105.05 171.99 105.05 177.15 148.7 177.15 148.7 224.24 105.05 224.24 105.05 229.39 148.7 229.39 148.7 275.43" style="fill:#f0f0f0"></polygon><path d="M206.52,284.91H96.05V142.36l1-1a76.77,76.77,0,0,1,108.46,0l1,1ZM102.92,278h96.72V145.23a69.89,69.89,0,0,0-96.72,0Z" style="fill:#f0f0f0"></path><path d="M383.72,167.37s1-6.6-3.81-10.83-4.39-6.75-3-7.08,2.64,3.91,4.76,5.07c0,0,.06-6-2.09-8.25s-3.27-7.94-1.23-8,2.26,3.39,2.68,5.88,2.7,6,2.7,6,.45-5.4,1.84-7.62-2.32-7.3-.89-9.52,4,2,3.76,6.77-3.39,9.84-2.65,14.81c0,0,1.4-3.49,2.66-3.81s2.52-2.62,3.37-3.48,1.9,2.11,0,4.86-6.77,10.11-6,16.05Z" style="fill:#e6e6e6"></path><path d="M380.85,164.37l-1.58,9.89a5,5,0,0,0,5,5.82h1.68a5,5,0,0,0,5-5.82l-1.57-9.89Z" style="fill:#e6e6e6"></path><rect x="293.28" y="176.43" width="111.4" height="5.72" style="fill:#e0e0e0"></rect><rect x="298.41" y="155.33" width="4.91" height="21.1" style="fill:#ebebeb"></rect><rect x="322.14" y="155.33" width="4.91" height="21.1" style="fill:#ebebeb"></rect><rect x="350.91" y="155.07" width="4.91" height="21.1" transform="translate(-22.99 62.42) rotate(-9.78)" style="fill:#ebebeb"></rect><rect x="304.49" y="158.11" width="4.91" height="18.32" style="fill:#ebebeb"></rect><rect x="315.77" y="158.11" width="4.91" height="18.32" style="fill:#ebebeb"></rect><rect x="344.24" y="158.11" width="4.91" height="18.32" style="fill:#ebebeb"></rect><rect x="330.63" y="157.8" width="4.91" height="18.32" transform="translate(-28.28 76.22) rotate(-12.53)" style="fill:#ebebeb"></rect><rect x="311.19" y="154.28" width="2.45" height="22.15" style="fill:#ebebeb"></rect><rect x="340.38" y="154.28" width="2.45" height="22.15" style="fill:#ebebeb"></rect><rect x="293.28" y="219.16" width="111.4" height="5.72" transform="translate(697.96 444.04) rotate(180)" style="fill:#e0e0e0"></rect><rect x="394.65" y="198.06" width="4.91" height="21.1" transform="translate(794.2 417.22) rotate(180)" style="fill:#ebebeb"></rect><rect x="370.92" y="198.06" width="4.91" height="21.1" transform="translate(746.74 417.22) rotate(180)" style="fill:#ebebeb"></rect><rect x="342.15" y="197.8" width="4.91" height="21.1" transform="translate(648.8 472.2) rotate(-170.22)" style="fill:#ebebeb"></rect><rect x="388.57" y="200.84" width="4.91" height="18.32" transform="translate(782.04 420) rotate(180)" style="fill:#ebebeb"></rect><rect x="377.29" y="200.84" width="4.91" height="18.32" transform="translate(759.48 420) rotate(180)" style="fill:#ebebeb"></rect><rect x="348.81" y="200.84" width="4.91" height="18.32" transform="translate(702.53 420) rotate(180)" style="fill:#ebebeb"></rect><rect x="362.42" y="200.53" width="4.91" height="18.32" transform="translate(675.59 493.52) rotate(-167.47)" style="fill:#ebebeb"></rect><rect x="384.32" y="197.01" width="2.45" height="22.15" transform="translate(771.1 416.17) rotate(180)" style="fill:#ebebeb"></rect><rect x="355.13" y="197.01" width="2.45" height="22.15" transform="translate(712.71 416.17) rotate(180)" style="fill:#ebebeb"></rect><rect x="303.97" y="202.46" width="23.91" height="16.51" transform="translate(631.85 421.43) rotate(180)" style="fill:#ebebeb"></rect></g><g id="freepik--Shadow--inject-51"><ellipse id="freepik--path--inject-51" cx="250" cy="416.24" rx="193.89" ry="11.32" style="fill:#f5f5f5"></ellipse></g><g id="freepik--Plant--inject-51"><polygon points="112.39 418.2 75.25 418.2 70.31 382.08 117.33 382.08 112.39 418.2" style="fill:#263238"></polygon><path d="M93.35,382.14s-5.2-24.57,4.27-37.88-8.56-.16-10.63,12.3c0,0-3.11-22.27,6.08-37.95s-8-2.8-9.46,13.35c0,0-2.82-19.88,1.4-31s-3.12-4-5.94,3,.88,24.33.88,24.33-7.37-32.05-14.34-29.5S76,322.31,78.45,333.24c0,0-8.23-14.7-14.46-11.64s9.66,4.58,16.94,26.51l2.55,10.28S75.92,343.87,71,348.45s14.67,12.48,19.23,34.47Z" style="fill:#407BFF"></path><path d="M92.33,383.56s-1.09-31-16.4-44.11,10.21-2.73,16.4,11.58c0,0-2.91-27.61-18.59-43.65s8.75-5.74,15.31,13.16c0,0-2.55-24.64-10.93-36.76s2.55-5.71,8,1.84S92.33,315,92.33,315s-.73-40.59,8.38-39.61-5.46,31.32-5.1,45.12c0,0,5.47-20.06,13.85-18.25s-10.2,8.37-12.39,36.8v13.07s4.74-19.63,12-15.62-13.85,19.31-12.76,47Z" style="fill:#407BFF"></path><path d="M92.33,383.56s-1.09-31-16.4-44.11,10.21-2.73,16.4,11.58c0,0-2.91-27.61-18.59-43.65s8.75-5.74,15.31,13.16c0,0-2.55-24.64-10.93-36.76s2.55-5.71,8,1.84S92.33,315,92.33,315s-.73-40.59,8.38-39.61-5.46,31.32-5.1,45.12c0,0,5.47-20.06,13.85-18.25s-10.2,8.37-12.39,36.8v13.07s4.74-19.63,12-15.62-13.85,19.31-12.76,47Z" style="fill:#fff;isolation:isolate;opacity:0.2"></path><path d="M65.66,379.15v3.44a4.15,4.15,0,0,0,4.15,4.15h48.48a4.15,4.15,0,0,0,4.16-4.15v-3.44Z" style="fill:#263238"></path><path d="M65.66,379.15v3.44a4.15,4.15,0,0,0,4.15,4.15h48.48a4.15,4.15,0,0,0,4.16-4.15v-3.44Z" style="fill:#fff;isolation:isolate;opacity:0.2"></path></g><g id="freepik--Character--inject-51"><path d="M349.78,287.79H248.48a8.56,8.56,0,0,0-8.27,7.36l-11.79,96.06h116l11.8-96.06A6.38,6.38,0,0,0,349.78,287.79Z" style="fill:#407BFF"></path><path d="M349.78,287.79H248.48a8.56,8.56,0,0,0-8.27,7.36l-11.79,96.06h116l11.8-96.06A6.38,6.38,0,0,0,349.78,287.79Z" style="fill:#fff;isolation:isolate;opacity:0.6000000000000001"></path><path d="M322,391.21h22.43l11.8-96.06a6.38,6.38,0,0,0-6.46-7.36h-7.71a8.56,8.56,0,0,0-8.27,7.36Z" style="isolation:isolate;opacity:0.2"></path><polygon points="337.94 416.78 330.07 416.78 326.86 392.23 340.34 392.23 337.94 416.78" style="fill:#263238"></polygon><polygon points="303.43 416.78 295.56 416.78 292.35 392.23 305.83 392.23 303.43 416.78" style="fill:#263238"></polygon><polygon points="244.84 416.78 236.97 416.78 233.76 392.23 247.24 392.23 244.84 416.78" style="fill:#263238"></polygon><polygon points="210.33 416.78 202.46 416.78 199.25 392.23 212.73 392.23 210.33 416.78" style="fill:#263238"></polygon><polygon points="303.43 416.78 295.56 416.78 292.35 392.23 305.83 392.23 303.43 416.78" style="fill:#fff;isolation:isolate;opacity:0.2"></polygon><polygon points="210.33 416.78 202.46 416.78 199.25 392.23 212.73 392.23 210.33 416.78" style="fill:#fff;isolation:isolate;opacity:0.2"></polygon><path d="M343.71,390.68l-.71,9a1.27,1.27,0,0,1-1.26,1.16H198.46a1.27,1.27,0,0,1-1.26-1.16l-.71-9Z" style="fill:#263238"></path><path d="M309.59,390.68l-.71,9a1.27,1.27,0,0,1-1.27,1.16H198.46a1.27,1.27,0,0,1-1.26-1.16l-.71-9Z" style="fill:#fff;isolation:isolate;opacity:0.2"></path><path d="M290.69,369.83H246.43L243.2,333a14.12,14.12,0,0,0-14.07-12.89H182a5.94,5.94,0,0,0-5.92,6.46l.74,8.47a6,6,0,0,0,5.17,5.37l1.67.22a4.42,4.42,0,0,1,3.85,4l4.07,46.46a6.55,6.55,0,0,0,6.53,6h92.59Z" style="fill:#407BFF"></path><path d="M290.69,369.83H246.43L243.2,333a14.12,14.12,0,0,0-14.07-12.89H182a5.94,5.94,0,0,0-5.92,6.46l.74,8.47a6,6,0,0,0,5.17,5.37l1.67.22a4.42,4.42,0,0,1,3.85,4l4.07,46.46a6.55,6.55,0,0,0,6.53,6h92.59Z" style="fill:#fff;isolation:isolate;opacity:0.6000000000000001"></path><path d="M210.56,333a14.13,14.13,0,0,0-14.07-12.89h32.64A14.12,14.12,0,0,1,243.2,333l3.23,36.83H213.78Z" style="isolation:isolate;opacity:0.2"></path><path d="M290.69,369.83H213.78L210.56,333a14.13,14.13,0,0,0-14.07-12.89H182a5.94,5.94,0,0,0-5.92,6.46l.74,8.47a6,6,0,0,0,5.17,5.37l1.67.22a4.42,4.42,0,0,1,3.85,4l4.07,46.46a6.55,6.55,0,0,0,6.53,6h92.59Z" style="fill:#fff;isolation:isolate;opacity:0.1"></path><polygon points="162.97 412.55 157.24 408.07 166.88 394.22 172.61 398.7 162.97 412.55" style="fill:#ce7a63"></polygon><polygon points="172.61 398.71 166.88 394.22 161.91 401.36 167.64 405.85 172.61 398.71" style="opacity:0.2"></polygon><path d="M156.57,407.53l7.83,2.36a.52.52,0,0,1,.37.63l-1.49,6.31a1.29,1.29,0,0,1-1.59.87c-2.71-.87-4-1.42-7.41-2.46-2.11-.64-11.18-3.13-14.1-4s-2-3.74-.65-3.63c5.9.5,13.28,1,15.71,0A2,2,0,0,1,156.57,407.53Z" style="fill:#263238"></path><path d="M152.54,407.24a1,1,0,0,1,.06-.95.64.64,0,0,1,.52-.34c.95-.08,2.51,1.86,2.69,2.08a.19.19,0,0,1,0,.19.18.18,0,0,1-.16.09,9.63,9.63,0,0,1-1.93-.31A2,2,0,0,1,152.54,407.24Zm.6-.95a.28.28,0,0,0-.24.17.58.58,0,0,0-.06.61c.22.43,1.13.74,2.45.87C154.64,407.18,153.66,406.24,153.14,406.29Z" style="fill:#407BFF"></path><path d="M155.55,408.25c-.57-.62-1.17-2.39-.78-3.1a.66.66,0,0,1,.74-.31.85.85,0,0,1,.62.43c.5.89-.26,2.85-.29,2.93a.2.2,0,0,1-.13.11h-.08A.14.14,0,0,1,155.55,408.25Zm-.1-3.08a.31.31,0,0,0-.38.15,3.41,3.41,0,0,0,.55,2.47,3.75,3.75,0,0,0,.21-2.35.49.49,0,0,0-.3-.25Z" style="fill:#407BFF"></path><path d="M273.94,332.79s-49.35-5-61.21-1.33-49.84,63.72-49.84,63.72l9.59,6.87s39.9-47.54,48-46.49S254.23,368.78,285,368.2s14.08-31.27,14.08-31.27Z" style="fill:#263238"></path><path d="M290.69,283.23c-.37.83-.67,1.42-1,2.1s-.69,1.29-1.05,1.93c-.72,1.27-1.48,2.51-2.27,3.74a62.31,62.31,0,0,1-5.3,7,47.73,47.73,0,0,1-6.56,6.28,32.12,32.12,0,0,1-8.27,4.8l-1.21.45a10,10,0,0,1-2,.45,10.14,10.14,0,0,1-3.88-.28,13.84,13.84,0,0,1-5.31-3,30.88,30.88,0,0,1-5.86-7.37,69.76,69.76,0,0,1-6.63-15.69l5.07-2c1.28,2.23,2.63,4.55,4.05,6.73a75.5,75.5,0,0,0,4.43,6.28,24.85,24.85,0,0,0,4.77,4.83,4,4,0,0,0,1.79.81c.15,0,.16,0,.15-.06a.06.06,0,0,1,0,0l.66-.32c3.81-1.85,7.33-5.14,10.39-8.91a71.35,71.35,0,0,0,4.33-6c.68-1,1.33-2.12,2-3.2l.91-1.63c.28-.51.6-1.13.81-1.53Z" style="fill:#ce7a63"></path><path d="M266.6,293.52l10,10.33,1.37-1.12c.62-.53,1.43-1.22,2.37-2,5.29-4.65,13.35-13.39,14.19-18.18,1.25-7.15-6-9.42-15.55-3.47-4.11,2.57-6.85,7.5-9.22,10.45-.78,1-1.44,1.82-2,2.49Z" style="fill:#407BFF"></path><polygon points="195.84 412.75 189.46 409.25 196.73 394.02 203.11 397.52 195.84 412.75" style="fill:#ce7a63"></polygon><polygon points="203.11 397.53 196.72 394.03 192.98 401.88 199.36 405.38 203.11 397.53" style="opacity:0.2"></polygon><path d="M189.08,409.93h8.17a.52.52,0,0,1,.54.5l.4,6.47a1.29,1.29,0,0,1-1.28,1.29c-2.84-.05-4.2-.22-7.8-.22-2.21,0-11.61.23-14.66.23s-3-3-1.68-3.29c5.81-1.23,13-2.92,15-4.53A2.07,2.07,0,0,1,189.08,409.93Z" style="fill:#263238"></path><path d="M185.13,410.82a.94.94,0,0,1-.21-.92.62.62,0,0,1,.4-.48c.88-.35,2.94,1.05,3.18,1.22a.15.15,0,0,1,.06.17.18.18,0,0,1-.12.13,9.29,9.29,0,0,1-1.94.26A2,2,0,0,1,185.13,410.82Zm.31-1.09a.32.32,0,0,0-.19.24.6.6,0,0,0,.12.6c.34.34,1.3.38,2.6.12C187.13,410.16,185.92,409.54,185.44,409.73Z" style="fill:#407BFF"></path><path d="M188.31,410.92c-.72-.43-1.81-1.95-1.64-2.74a.65.65,0,0,1,.61-.52.85.85,0,0,1,.72.24c.74.71.57,2.8.57,2.89a.16.16,0,0,1-.09.13.13.13,0,0,1-.08,0A.15.15,0,0,1,188.31,410.92Zm-1-2.92c-.25,0-.31.15-.33.25-.11.52.61,1.67,1.25,2.2a3.77,3.77,0,0,0-.48-2.31.51.51,0,0,0-.37-.15Z" style="fill:#407BFF"></path><path d="M294.43,283.35c-2.29-2.12-4.88,2-10.55,4.83-2.54,1.28-9.26,11.24-9.24,13.68l1.92,2S293.31,290.49,294.43,283.35Z" style="opacity:0.30000000000000004"></path><path d="M247.07,283l-1.17-8.3-7.19,3.65s2.35,7.61,4.83,7.36Z" style="fill:#ce7a63"></path><polygon points="239.64 270.54 235.3 274.37 238.71 278.32 245.9 274.67 239.64 270.54" style="fill:#ce7a63"></polygon><path d="M273.94,332.79l38.39,6.31c.84-3.38,1.88-10.05,4.8-24.16a185,185,0,0,1,9-30.69c.3-.75.6-1.48.91-2.23,0,0-1.88-.72-4.6-1.58-2.26-.72-5.11-1.55-7.93-2.15a144.49,144.49,0,0,0-16.32-2.68c-2.55-.18-5.07-.17-7.08-.11-2.58.09-4.13.28-4.13.28S273.92,291.33,273.94,332.79Z" style="fill:#407BFF"></path><path d="M317.13,314.94a185.23,185.23,0,0,1,9-30.69c-2.53-.64-7-1.11-8.37,2.91C316.21,291.49,315.48,302.13,317.13,314.94Z" style="opacity:0.30000000000000004"></path><path d="M327.67,285.64c3.17,3.68,6.43,7.47,9.66,11.07,1.63,1.77,3.27,3.56,4.87,5.07.4.38.8.73,1.16,1s.71.57.87.69.11.07-.19,0a1.94,1.94,0,0,0-.32-.07,3.33,3.33,0,0,0-.57,0,4.23,4.23,0,0,0-3.35,1.7,3.55,3.55,0,0,0-.32.47l-.12.25,0,.07c0,.07-.06.16-.08.22a.4.4,0,0,0,0,.15c0,.12,0,.13,0,0a9.72,9.72,0,0,0-.15-2.46c-.17-1-.42-2.17-.71-3.3-.56-2.27-1.27-4.6-2-6.93-1.52-4.66-3.16-9.4-4.81-14.08l4.89-2.43A127.39,127.39,0,0,1,344,290.56c1.13,2.34,2.18,4.73,3.12,7.26.46,1.27.9,2.57,1.27,4a17.54,17.54,0,0,1,.71,5,9.28,9.28,0,0,1-.24,1.92l-.16.59c-.07.21-.17.45-.26.67l-.07.17-.19.35a7.65,7.65,0,0,1-.43.67,5.7,5.7,0,0,1-1.41,1.31,5.84,5.84,0,0,1-3.19.95,6.76,6.76,0,0,1-1-.08,5.62,5.62,0,0,1-.78-.17,10.23,10.23,0,0,1-1.92-.75,20.22,20.22,0,0,1-2.26-1.41c-.64-.45-1.21-.9-1.76-1.35a78.83,78.83,0,0,1-5.92-5.47,145.87,145.87,0,0,1-10.28-11.56Z" style="fill:#ce7a63"></path><path d="M336.82,278.67l2.44-6.93L330.37,274s-1,6.53,2.37,6.79Z" style="fill:#ce7a63"></path><polygon points="335.99 265.71 328.74 267.96 330.37 274.03 339.25 271.74 335.99 265.71" style="fill:#ce7a63"></polygon><path d="M327,282c4.07.53,10,13.7,10,13.7l-9.69,11.4-12-11.4S314,280.34,327,282Z" style="fill:#407BFF"></path><path d="M316.31,267.73a21.1,21.1,0,0,0-1.66,2.38,17.42,17.42,0,0,0-2.09,4.91,9.36,9.36,0,0,0-.23,3.41s-6.54,8.3-14.62,7.25c-6.78-.87-1.53-10-1.53-10,4.93-.35,9.62-2.71,10.7-14Z" style="fill:#ce7a63"></path><path d="M314.65,270.11a17.42,17.42,0,0,0-2.09,4.91c-5-3.29-4.36-9.53-4.36-9.53S311.49,267.65,314.65,270.11Z" style="opacity:0.2"></path><path d="M323.59,247.16c3.5,1.81,5,12,.29,13.93S317,243.74,323.59,247.16Z" style="fill:#263238"></path><path d="M306.67,257.22c1.17,7.14,1.49,11.37,5.49,14.81a9.41,9.41,0,0,0,15.56-6c.9-6.54-1.16-17.13-8.49-19.52A9.53,9.53,0,0,0,306.67,257.22Z" style="fill:#ce7a63"></path><path d="M322.33,258.49a21.91,21.91,0,0,0,3.3,4.82,3.32,3.32,0,0,1-2.74.7Z" style="fill:#ba4d3c"></path><path d="M318,254.42a.29.29,0,0,1,.17.06.35.35,0,0,1,.09.47,3.29,3.29,0,0,1-2.73,1.5.34.34,0,1,1,0-.68,2.65,2.65,0,0,0,2.13-1.2A.33.33,0,0,1,318,254.42Z" style="fill:#263238"></path><path d="M324.53,253.49a.36.36,0,0,1,.3.13,2.91,2.91,0,0,0,2.28,1.13.34.34,0,0,1,.37.31.35.35,0,0,1-.32.37h0a3.58,3.58,0,0,1-2.87-1.39.34.34,0,0,1,0-.48A.36.36,0,0,1,324.53,253.49Z" style="fill:#263238"></path><path d="M317.91,259.49a.21.21,0,0,1-.17-.08.23.23,0,0,1,0-.32,2.41,2.41,0,0,1,1-.37,3.14,3.14,0,0,0-1.31-.25.23.23,0,1,1-.06-.45,3.71,3.71,0,0,1,2.28.65.22.22,0,0,1,.1.25.23.23,0,0,1-.21.18,3.54,3.54,0,0,0-1.53.34A.3.3,0,0,1,317.91,259.49Z" style="fill:#263238"></path><path d="M324.11,258.74a.23.23,0,0,1-.19-.1.22.22,0,0,1,0-.27,3.78,3.78,0,0,1,1.91-1.41.22.22,0,0,1,.28.17.24.24,0,0,1-.17.28,3,3,0,0,0-1.15.69,2.29,2.29,0,0,1,1.1,0,.23.23,0,1,1-.16.43,3.74,3.74,0,0,0-1.55.22Z" style="fill:#263238"></path><path d="M326.44,266.06c-.19-.79-4.21,1.33-3.61,2.56S327,268.43,326.44,266.06Z" style="fill:#263238"></path><path d="M310.3,263l-.82-3.93s4-5.43,1.85-9.88c0,0,13.83,5.17,18.12,2.55,0,0-2,.29-2.62-.25,0,0,2.8-.52,2.62-3s-1.71-3.17-1.71-3.17.5,1.56-.26,1.51c0,0-1.41-4.29-9.46-5.38s-14.19,3.58-13.54,6.8c0,0-7.27,3.91-.18,14.32Z" style="fill:#263238"></path><path d="M304.66,264.5a7.81,7.81,0,0,0,4.34,2.91c2.21.49,2.82-1.55,1.79-3.6-.92-1.85-3.18-4.33-5.2-3.91S303.31,262.69,304.66,264.5Z" style="fill:#ce7a63"></path><path d="M312.33,339.1s-1.08,30.73-14,30.73c-19.95,0-60.63-17.68-62.19-17.1s-28.86,49.89-28.86,49.89L193.42,398s21.52-58,27.07-66.09,58,5.36,58,5.36l5.55-2.83Z" style="fill:#263238"></path><path d="M334.78,273.73a3.4,3.4,0,0,1,.38-.12c4.23-.88,7,2.09,9.26,5.25,1.08,1.51,2.21,3.72,3.62,5.5l1.23,1.05s3.19-5.5,2.92-7.09a7.65,7.65,0,0,0-2.1-3.3s1.55-4.6,0-5.58-3.19-.93-5.93-2-7.39-5-8.94-5.82-2.55,1.38-5.29,2-5.19.2-4.3,1.82,2.29,10,2.29,10l2.92,2a4.38,4.38,0,0,0,1.1-2c.09-.89,2.8-1.74,2.8-1.74Z" style="fill:#407BFF"></path><path d="M334.77,273.73c.13,0,.25-.09.39-.12,4.23-.88,7,2.09,9.26,5.25,1.08,1.51,2.2,3.72,3.61,5.49l1.15,1,.09.08s3.19-5.5,2.91-7.1a7.65,7.65,0,0,0-2.09-3.29s1.55-4.59,0-5.58-3.19-.93-5.93-2-7.39-5-8.94-5.82-2.55,1.38-5.29,2-5.19.2-4.3,1.82,2.29,10,2.29,10l2.92,2a4.38,4.38,0,0,0,1.1-2c.09-.89,2.8-1.74,2.8-1.74Z" style="fill:#fff;isolation:isolate;opacity:0.6000000000000001"></path><path d="M335.16,273.61c4.23-.88,7,2.09,9.26,5.25,1.08,1.51,2.2,3.72,3.61,5.49l1.15,1c.21-.54.45-1.17.69-1.81.74-2,1.54-4.16,1.62-4.64-.25.07-.51.14-.76.23-1,.46-2.64,1.22-3.08.83l-.06-.11h0c-.26-1,2.44-6.82,2.68-8.08s.2-1.89-.91-2.13c-.46-.1-1.71.49-3.05,1.2h0c-1.46.77-3,1.69-3.79,2-.23.11-.4.15-.45.12-.43-.24-1.53-4.74-2.2-5.47s-1.09.66-1.39,1.59-2.08,4.24-3.74,4.65h0C334.9,273.69,335,273.64,335.16,273.61Z" style="opacity:0.2"></path><path d="M351.49,278.88c-.08.48-.88,2.65-1.62,4.64-1.77-2-6.65-7.62-8.19-8.66a8,8,0,0,0-3.27-2.07l-1.16-.41,4.42.6a1.08,1.08,0,0,0,.85-.15c.76-.32,2.33-1.24,3.79-2a3.11,3.11,0,0,1-.27,1.51c-.41,1.11-.92,2.19-1.44,3.27a1.57,1.57,0,0,0-.19.59,1.54,1.54,0,0,0,.26.77,8,8,0,0,0,2,2.19,8.69,8.69,0,0,0,.94.67h0l.06.11c.44.39,2.09-.37,3.08-.83C351,279,351.24,279,351.49,278.88Z" style="opacity:0.2"></path><path d="M330.22,263.77c.84.12,5.88,2.7,7.31,3s1.74,0,2.31.36,1.43,3.49,1.55,3.71-.12-.22-.12-.22-1.15-3.58-1.67-3.85-3.59-1-5.05-1.71A24.25,24.25,0,0,0,330.22,263.77Z" style="opacity:0.2"></path><path d="M350.09,275s-1.07,2.65-1.37,3.3-.58.86-.24,1,1-.24,1-.24l-.27-.74A19.26,19.26,0,0,0,350.09,275Z" style="opacity:0.2"></path><path d="M323.66,263.77s.21,2.39,1,1.94C324.94,265.53,323.66,263.77,323.66,263.77Z" style="fill:#fff;isolation:isolate;opacity:0.6000000000000001"></path><path d="M327.75,264.76s1.69,1.7,2,.87C329.86,265.29,327.75,264.76,327.75,264.76Z" style="fill:#fff;isolation:isolate;opacity:0.6000000000000001"></path><path d="M327.71,268.63s.69,2.31,1.35,1.71C329.33,270.1,327.71,268.63,327.71,268.63Z" style="fill:#fff;isolation:isolate;opacity:0.6000000000000001"></path><path d="M301.2,297.65l-13.37-1.83-1.4-4.61-3.13,15.21,6.23,14.14s14.23-10.28,14.3-10.51,3.38-16.68,3.38-16.68Zm-14.86,8.18.91-2.78,2.82,4.07Zm13.77,1.29-5.48.16,5.48-2.72Z" style="opacity:0.2"></path><path d="M360.81,320.11h-52A14.12,14.12,0,0,0,294.75,333l-3.23,36.83h-3.69v27.25H344.7a6.57,6.57,0,0,0,6.54-6l4.06-46.46a4.42,4.42,0,0,1,3.85-4l1.67-.22A5.94,5.94,0,0,0,366,335l.74-8.47A5.94,5.94,0,0,0,360.81,320.11Z" style="fill:#407BFF"></path><path d="M360.81,320.11h-52A14.12,14.12,0,0,0,294.75,333l-3.23,36.83h-3.69v27.25H344.7a6.57,6.57,0,0,0,6.54-6l4.06-46.46a4.42,4.42,0,0,1,3.85-4l1.67-.22A5.94,5.94,0,0,0,366,335l.74-8.47A5.94,5.94,0,0,0,360.81,320.11Z" style="fill:#fff;isolation:isolate;opacity:0.6000000000000001"></path><g style="isolation:isolate;opacity:0.2"><path d="M313.74,391.09l4.07-46.46a4.42,4.42,0,0,1,3.85-4l1.67-.22a5.93,5.93,0,0,0,5.16-5.37l.75-8.47a5.94,5.94,0,0,0-5.92-6.46h37.49a5.94,5.94,0,0,1,5.92,6.46L366,335a5.94,5.94,0,0,1-5.17,5.37l-1.67.22a4.42,4.42,0,0,0-3.85,4l-4.06,46.46a6.57,6.57,0,0,1-6.54,6H307.21A6.55,6.55,0,0,0,313.74,391.09Z"></path></g><path d="M323.32,320.11h-14.5A14.12,14.12,0,0,0,294.75,333l-3.23,36.83h-3.69v27.25h19.38a6.55,6.55,0,0,0,6.53-6l4.07-46.46a4.42,4.42,0,0,1,3.85-4l1.67-.22A6,6,0,0,0,328.5,335l.74-8.47A5.94,5.94,0,0,0,323.32,320.11Z" style="fill:#fff;isolation:isolate;opacity:0.1"></path></g><g id="freepik--Cat--inject-51"><path d="M259.72,305.83a32.36,32.36,0,0,0,3,5.53,4.09,4.09,0,0,0,3.6,1.52c.68.05,8.09-2.6,8.79-2.67s3.63.49,3.32,1.3-1.53.54-2.37.86,0,1.22-2.25,2.07-4.29,1.34-3.74,1.79-3.85,1.42-4.52,1.92-.24,1-1.34.73.11,1.19-2.95.3-9.63-1.71-11.87-3.59S259.72,305.83,259.72,305.83Z" style="fill:#263238"></path><path d="M278.48,311.5c-.3.81-1.53.55-2.36.87s0,1.22-2.26,2.06-4.3,1.35-3.74,1.8-3.85,1.41-4.52,1.92-.23,1-1.34.73.11,1.19-2.94.3c-1.15-.33-2.82-.66-4.56-1-2.86-.62-5.93-1.38-7.32-2.55-1.7-1.43,5.15-6.34,8.5-8.6,1.06-.71,1.77-1.16,1.77-1.16a32.82,32.82,0,0,0,3.07,5.53,4.1,4.1,0,0,0,3.59,1.53c.67,0,8.09-2.61,8.79-2.68S278.78,310.7,278.48,311.5Z" style="fill:#fff;isolation:isolate;opacity:0.5"></path><path d="M258.57,313.21a3.15,3.15,0,0,0-.49,1.17.84.84,0,0,0,.66.95.83.83,0,0,1-.78.38c.06.49.11,1,.17,1.46l-.76.11c.12.16.23.33.35.5-.14-.21-.92.06-1.06.12a1.22,1.22,0,0,0,.1.24c-2.86-.62-5.93-1.38-7.32-2.55-1.7-1.43,5.15-6.34,8.5-8.6.34.28.69.56,1,.82a2.32,2.32,0,0,1,.68.75,1.89,1.89,0,0,1,.1,1A9.25,9.25,0,0,1,258.57,313.21Z" style="opacity:0.2"></path><path d="M225.37,306.33s0,6.92,0,10.2a38.46,38.46,0,0,0,.85,6.44c0,.73,1.34,5,2.31,6,.32.32,4.13,2.49,2.46,3.27-.24.11-.5-.09-.74-.2a3.72,3.72,0,0,0-1.6-.12c-2,0-1.69-2.38-2.67-3.55a53.35,53.35,0,0,0-6.52-7.14,7.13,7.13,0,0,1-1.71-1.8,2.47,2.47,0,0,1-.18-2.38c-.54,0-.95-.5-1.13-1a5.14,5.14,0,0,0-.57-1.52,1.53,1.53,0,0,1-1.05,1.08,57,57,0,0,1-2.74-10.91c-.16-1-1.24-6.49,0-7C213.09,297.32,223.12,300.33,225.37,306.33Z" style="fill:#263238"></path><path d="M231,332.2c-.24.11-.51-.09-.75-.2a3.61,3.61,0,0,0-1.61-.12c-2,0-1.68-2.38-2.66-3.56a53.88,53.88,0,0,0-6.52-7.13,7.13,7.13,0,0,1-1.71-1.8,2.47,2.47,0,0,1-.18-2.38c-.54,0-.95-.5-1.13-1a5,5,0,0,0-.58-1.51,1.49,1.49,0,0,1-1,1.08c-.21-.59-.42-1.18-.61-1.78a59,59,0,0,1-2.13-9.13c-.15-1-1.24-6.49,0-7,1-.36,11,2.65,13.25,8.65,0,0,0,3.45,0,6.62v3.58a38.46,38.46,0,0,0,.85,6.44c0,.73,1.34,5,2.31,6C228.86,329.25,232.66,331.42,231,332.2Z" style="fill:#fff;isolation:isolate;opacity:0.5"></path><path d="M225.37,313a4,4,0,0,1-.57-.23c-.54-.25-1.23-.54-1.65-.12-.44-1.18-2.32-1-3.07-2a4,4,0,0,1-2.31.85,2.72,2.72,0,0,0-.49.05,2.23,2.23,0,0,0-.65.41,2.53,2.53,0,0,1-1.5.48,8,8,0,0,0-.92,1.39,59,59,0,0,1-2.13-9.13c-.15-1-1.24-6.49,0-7,1-.36,11,2.65,13.25,8.65C225.38,306.34,225.37,309.78,225.37,313Z" style="opacity:0.2"></path><path d="M260.58,297.71a62.77,62.77,0,0,1-.68-6.5s-3.55,3-4.1,6.15S260.58,297.71,260.58,297.71Z" style="fill:#263238"></path><path d="M260.58,297.71a62.77,62.77,0,0,1-.68-6.5s-3.55,3-4.1,6.15S260.58,297.71,260.58,297.71Z" style="fill:#fff;isolation:isolate;opacity:0.5"></path><path d="M259.64,292.22a20.59,20.59,0,0,0-.45,4.08c.18.73.91.36.91.36A17.5,17.5,0,0,0,259.64,292.22Z" style="opacity:0.30000000000000004"></path><path d="M265.35,306.28a2.91,2.91,0,0,1,.65-1.42,2.86,2.86,0,0,1,.16-.76.18.18,0,0,1,0-.16,3.81,3.81,0,0,1,.23-.5c.21-.44.53-1.43.17-1.85s-1.17-.5-1.54-.7c-1-.54-.5-1-1.19-1.92a.86.86,0,0,1-.19-.35c0-.13,0-.25,0-.38,0-.32-.35-.51-.56-.75s-.24-.74.07-.79c-2.09-1.27-4.72-1.1-7.17-.89a6,6,0,0,0-2.15.45c-2.92,1.43-8,3.54-10.91.89-2.13-1.95-22.17-13.14-26.57-13.33-1.28,0-2.57.06-3.84,0-2-.09-2.72-2.14-3.31-4a13.89,13.89,0,0,1,2.07-12.65,1.5,1.5,0,0,1-1.07-.57c0-.06,3.89-5.25,4.23-5.78.89-1.36,1.82-2.69,2.61-4.11a21.74,21.74,0,0,0,1.38-4.05c.82-2.49.44-5.19,0-7.78a11,11,0,0,1-.17,3.92c-.89-2-.48-4.29-1.12-6.36a13.1,13.1,0,0,0-1.59-3.06l.22,2.88c0-.56-1.41-2-1.79-2.52a7.27,7.27,0,0,0-2-2.07,5.6,5.6,0,0,0-2.72-.87l.48,2.43c-1.7-1.46-6.32,0-6.32,0s3.4,2.19,4.38,4.38.48,9.85.48,9.85L207.08,250a14.1,14.1,0,0,1-3.89,7.83c-1.85,1.76-2.53,4.59-2.95,7-.18,1.08-.11,2.31-.39,3.36-.59,2.22-1.34-.25-1.87-1.39a30.46,30.46,0,0,0,.79,11.09,10,10,0,0,1-2.61-3.13,13,13,0,0,0,7.05,10.48l-1.41.22c.82.54,3.63,1.76,3.95,2.67s-1.41,2.25-1.9,3a1.2,1.2,0,0,0,.81-.11c-.35.9-1.48,1.31-1.83,2.21a3.17,3.17,0,0,0-.14.93c-.05,1-.09,1.95-.14,2.93a2.92,2.92,0,0,1-.35,1.52,10.39,10.39,0,0,1-1,1,1,1,0,0,0-.15,1.28c.1.1.23.16.3.28.2.33-.18.68-.43,1a4.71,4.71,0,0,0-.75,1.88c-.33,1.1-1.21,1.45-2,2.17a20.8,20.8,0,0,0-2.15,2.62q-1.35,1.75-2.63,3.58l-4,7.66h5l-1-2.05,3.07-3.12a27.26,27.26,0,0,1,4-1.17c1.69-.35,4,.85,5.2-.75.23-.3.39-.66.64-.94.89-1,2.7-.88,3.43-2l-.26,1.58c2.21-1.72,4.45-3.42,6.72-5.08a4.85,4.85,0,0,0,2.17,3.84,5.55,5.55,0,0,1,.8-2.44,29.54,29.54,0,0,0,6.16,5.65c0-.7-.07-1.39-.11-2.09a6.43,6.43,0,0,0,3.48,4,.92.92,0,0,0,.82.07c.17-.1.28-.3.47-.37a.79.79,0,0,1,.59.12c1.38.7,3.12,1.22,3.89,2.64.34.62.5,1.38.8,2,.56,1.23.43.62,1.44,1.12.3.15.34.55.54.82a.81.81,0,0,0,1.14.15q.8,2.4,1.74,4.75a.81.81,0,0,0,.34.48c.15.08.34.06.5.13a1,1,0,0,1,.48.58c.67,1.43,1.18,2.95,1.9,4.34a8.32,8.32,0,0,1,.51,4c0,1.27,1.09,1.93,2.16,2.51,0-.33.4-.5.72-.45.49.08,1.34.37,1.75-.05s.11-1.26-.25-1.58c-.53-.45-.95-.58-1.09-1.34a9.52,9.52,0,0,1-.09-1.85,13.06,13.06,0,0,1,.3-2.16,20.45,20.45,0,0,1,.66-2.7,7.52,7.52,0,0,1,1.61-2.55l.23-.3a4.17,4.17,0,0,0,.82-1.37c.05-.21.08-.43.12-.64a11.86,11.86,0,0,1,.31-1.31c.07-.28.15-.57.23-.85.22-.81.44-1.62.68-2.42a5.37,5.37,0,0,1,1.19-2.34.8.8,0,0,1,.39-.24c.15,0,.31,0,.46,0a.72.72,0,0,0,.52-.62,3.89,3.89,0,0,1,.18-.85c.24-.47.8-.63,1.24-.9a5.08,5.08,0,0,0,1.25-1.24c.34-.43.69-.86,1-1.3.19-.24.38-.47.56-.71l.35.48c.45-1.52,1-3.05,2.44-2.95,1.11.07,2.4.28,3.2-.69a1.56,1.56,0,0,0,.39-.9C265.27,306.79,265.22,306.46,265.35,306.28Z" style="fill:#263238"></path><path d="M265.35,306.28a2.91,2.91,0,0,1,.65-1.42,2.86,2.86,0,0,1,.16-.76.18.18,0,0,1,0-.16,3.81,3.81,0,0,1,.23-.5c.21-.44.53-1.43.17-1.85s-1.17-.5-1.54-.7c-1-.54-.5-1-1.19-1.92a.86.86,0,0,1-.19-.35c0-.13,0-.25,0-.38,0-.32-.35-.51-.56-.75s-.24-.74.07-.79c-2.09-1.27-4.72-1.1-7.17-.89a6,6,0,0,0-2.15.45c-2.92,1.43-8,3.54-10.91.89-2.13-1.95-22.17-13.14-26.57-13.33-1.28,0-2.57.06-3.84,0-2-.09-2.72-2.14-3.31-4a13.89,13.89,0,0,1,2.07-12.65,1.5,1.5,0,0,1-1.07-.57c0-.06,3.89-5.25,4.23-5.78.89-1.36,1.82-2.69,2.61-4.11a21.74,21.74,0,0,0,1.38-4.05c.82-2.49.44-5.19,0-7.78a11,11,0,0,1-.17,3.92c-.89-2-.48-4.29-1.12-6.36a13.1,13.1,0,0,0-1.59-3.06l.22,2.88c0-.56-1.41-2-1.79-2.52a7.27,7.27,0,0,0-2-2.07,5.6,5.6,0,0,0-2.72-.87l.48,2.43c-1.7-1.46-6.32,0-6.32,0s3.4,2.19,4.38,4.38.48,9.85.48,9.85L207.08,250a14.1,14.1,0,0,1-3.89,7.83c-1.85,1.76-2.53,4.59-2.95,7-.18,1.08-.11,2.31-.39,3.36-.59,2.22-1.34-.25-1.87-1.39a30.46,30.46,0,0,0,.79,11.09,10,10,0,0,1-2.61-3.13,13,13,0,0,0,7.05,10.48l-1.41.22c.82.54,3.63,1.76,3.95,2.67s-1.41,2.25-1.9,3a1.2,1.2,0,0,0,.81-.11c-.35.9-1.48,1.31-1.83,2.21a3.17,3.17,0,0,0-.14.93c-.05,1-.09,1.95-.14,2.93a2.92,2.92,0,0,1-.35,1.52,10.39,10.39,0,0,1-1,1,1,1,0,0,0-.15,1.28c.1.1.23.16.3.28.2.33-.18.68-.43,1a4.71,4.71,0,0,0-.75,1.88c-.33,1.1-1.21,1.45-2,2.17a20.8,20.8,0,0,0-2.15,2.62q-1.35,1.75-2.63,3.58l-4,7.66h5l-1-2.05,3.07-3.12a27.26,27.26,0,0,1,4-1.17c1.69-.35,4,.85,5.2-.75.23-.3.39-.66.64-.94.89-1,2.7-.88,3.43-2l-.26,1.58c2.21-1.72,4.45-3.42,6.72-5.08a4.85,4.85,0,0,0,2.17,3.84,5.55,5.55,0,0,1,.8-2.44,29.54,29.54,0,0,0,6.16,5.65c0-.7-.07-1.39-.11-2.09a6.43,6.43,0,0,0,3.48,4,.92.92,0,0,0,.82.07c.17-.1.28-.3.47-.37a.79.79,0,0,1,.59.12c1.38.7,3.12,1.22,3.89,2.64.34.62.5,1.38.8,2,.56,1.23.43.62,1.44,1.12.3.15.34.55.54.82a.81.81,0,0,0,1.14.15q.8,2.4,1.74,4.75a.81.81,0,0,0,.34.48c.15.08.34.06.5.13a1,1,0,0,1,.48.58c.67,1.43,1.18,2.95,1.9,4.34a8.32,8.32,0,0,1,.51,4c0,1.27,1.09,1.93,2.16,2.51,0-.33.4-.5.72-.45.49.08,1.34.37,1.75-.05s.11-1.26-.25-1.58c-.53-.45-.95-.58-1.09-1.34a9.52,9.52,0,0,1-.09-1.85,13.06,13.06,0,0,1,.3-2.16,20.45,20.45,0,0,1,.66-2.7,7.52,7.52,0,0,1,1.61-2.55l.23-.3a4.17,4.17,0,0,0,.82-1.37c.05-.21.08-.43.12-.64a11.86,11.86,0,0,1,.31-1.31c.07-.28.15-.57.23-.85.22-.81.44-1.62.68-2.42a5.37,5.37,0,0,1,1.19-2.34.8.8,0,0,1,.39-.24c.15,0,.31,0,.46,0a.72.72,0,0,0,.52-.62,3.89,3.89,0,0,1,.18-.85c.24-.47.8-.63,1.24-.9a5.08,5.08,0,0,0,1.25-1.24c.34-.43.69-.86,1-1.3.19-.24.38-.47.56-.71l.35.48c.45-1.52,1-3.05,2.44-2.95,1.11.07,2.4.28,3.2-.69a1.56,1.56,0,0,0,.39-.9C265.27,306.79,265.22,306.46,265.35,306.28Z" style="fill:#fff;isolation:isolate;opacity:0.6000000000000001"></path><path d="M257,297.65a64.44,64.44,0,0,1-2.65-6s-2.46,3.92-2,7.11S257,297.65,257,297.65Z" style="fill:#263238"></path><path d="M257,297.65a64.44,64.44,0,0,1-2.65-6s-2.46,3.92-2,7.11S257,297.65,257,297.65Z" style="fill:#fff;isolation:isolate;opacity:0.6000000000000001"></path><path d="M262,300.35c.08.46-.06.88-.33.93s-.54-.29-.63-.75.06-.89.32-.94S262,299.88,262,300.35Z" style="fill:#263238"></path><path d="M266.37,302.71v.39l0,.06a4.35,4.35,0,0,0-.47,1.06,1.13,1.13,0,0,0,0,.25.88.88,0,0,1,0,.37,1.16,1.16,0,0,1-.49.53,2.29,2.29,0,0,1-1.25.37,4.87,4.87,0,0,0-1.11.35,3.5,3.5,0,0,1-1.22.33c-.27,0-.39-.23-.55-.34a1.79,1.79,0,0,0-.5-.31c-.05,0,0,0-.08.05a.08.08,0,0,1-.1,0,.09.09,0,0,1,0-.05l0-.08a1,1,0,0,0-.09-.29c0-.08-.13-.06-.23,0a.35.35,0,0,1-.17,0,.17.17,0,0,1-.08-.15c0-.1.08-.24,0-.25a.24.24,0,0,1-.24-.18.59.59,0,0,1,.23-.55c-.13.15-.27.35-.2.54s.11.14.22.15.11.1.09.14a.38.38,0,0,0,0,.15c0,.1.08.12.18.1s.25,0,.32.08a1.82,1.82,0,0,1,.11.3s.07.1,0,.08a.15.15,0,0,1,.06-.06.15.15,0,0,1,.11,0,1.89,1.89,0,0,1,.56.31c.17.11.32.29.48.28a3.41,3.41,0,0,0,1.12-.36,4.32,4.32,0,0,1,1.21-.43,2.08,2.08,0,0,0,1.06-.37.82.82,0,0,0,.32-.36.83.83,0,0,0,0-.24,1.35,1.35,0,0,1,0-.35,4.54,4.54,0,0,1,.47-1.21l0,.12,0-.34Z" style="opacity:0.30000000000000004"></path><path d="M266.16,301.35c-.68-.26-1.15.48-1,.66s.68,1,1,1S267.34,301.81,266.16,301.35Z" style="fill:#263238"></path><path d="M254.32,293.31s-.91,3.32-.48,4.34,2.25-1,2.25-1A16.79,16.79,0,0,1,254.32,293.31Z" style="opacity:0.30000000000000004"></path><g style="opacity:0.2"><path d="M259.15,308.76l-.74.73a2.78,2.78,0,0,1-.42.33.5.5,0,0,1-.6,0c-.18-.27-.5-.08-.82,0a1.77,1.77,0,0,1-1.11.19,4.52,4.52,0,0,1-1.73-1.32,1.64,1.64,0,0,1-.16-.26.47.47,0,0,1-.06-.19c0-.06,0,0,.05.06s0,0-.11,0l-.26.05a.82.82,0,0,1-.68-.13.74.74,0,0,1-.17-.7,12,12,0,0,1,.85-1.95,4.2,4.2,0,0,0,.34-.9c0-.14,0-.1-.13-.18a3.11,3.11,0,0,0-.47-.07,3.71,3.71,0,0,1-.54-.08,1,1,0,0,1-.29-.11.37.37,0,0,1-.17-.35,1,1,0,0,1,.24-.54l.33-.41a7.63,7.63,0,0,1,1.58-1.37,8.34,8.34,0,0,0-1.4,1.51,2.18,2.18,0,0,0-.46.81c0,.15.42.18.73.18a2.89,2.89,0,0,1,.56.06.73.73,0,0,1,.32.19.56.56,0,0,1,.09.39,3.71,3.71,0,0,1-.35,1,12.53,12.53,0,0,0-.78,1.86c0,.29,0,.34.34.3l.25,0a.64.64,0,0,1,.4,0,.39.39,0,0,1,.16.28.1.1,0,0,0,0,.06,1.12,1.12,0,0,0,.1.18,4.89,4.89,0,0,0,1.5,1.23,1.51,1.51,0,0,0,.91-.12,2.55,2.55,0,0,1,.53-.15.86.86,0,0,1,.31,0,.74.74,0,0,1,.24.2c.15.2.53-.05.78-.25S258.87,309,259.15,308.76Z" style="fill:#263238"></path></g><g style="opacity:0.2"><path d="M252.88,316.18a7.76,7.76,0,0,0-1.58,1.75,6.16,6.16,0,0,1-.81.9,1,1,0,0,1-1.28.12c-.42-.32-.35-.92-.45-1.15,0-.07-.06-.11-.08-.11s0,0-.21,0a.39.39,0,0,1-.28-.1.46.46,0,0,1-.12-.21l-.08-.31-.54-2.31.29.17a2.18,2.18,0,0,0-.78.45l-.24.21-.12-.29a7,7,0,0,1-.55-3l.39.08a.49.49,0,0,1-.56.27.64.64,0,0,1-.45-.36,1.53,1.53,0,0,1,0-.91l.37-1.56.19.15a1.74,1.74,0,0,1-.46.13.54.54,0,0,1-.5-.2,1.84,1.84,0,0,1-.18-.92,4.08,4.08,0,0,1,.38-1.73,4.25,4.25,0,0,0-.21,1.72,1.88,1.88,0,0,0,.19.79c.12.17.42.07.67,0l.24-.11-.05.26-.29,1.59a1.29,1.29,0,0,0,0,.67c0,.15.31.14.28.1l.39.08a6.55,6.55,0,0,0,.56,2.8l-.36-.08a2.39,2.39,0,0,1,.94-.54l.23-.08.06.24.5,2.32.06.27c0,.08,0,0,0,0a.75.75,0,0,1,.37,0,.62.62,0,0,1,.3.33,2.79,2.79,0,0,1,.09.62.79.79,0,0,0,.2.42.72.72,0,0,0,.9-.08,7.05,7.05,0,0,0,.82-.82A7.21,7.21,0,0,1,252.88,316.18Z" style="fill:#263238"></path></g><g style="opacity:0.2"><path d="M239.12,320.56a1.89,1.89,0,0,1-.66-.79,3.34,3.34,0,0,1-.1-1,1.55,1.55,0,0,0-.29-.89,7.51,7.51,0,0,0-.68-.74,1.22,1.22,0,0,1-.29-.51.81.81,0,0,1,.07-.63,8.14,8.14,0,0,1,.65-.81c.38-.41-.49-.75-.9-1.37a1.4,1.4,0,0,1-.2-1.16c.1-.36.25-.65.3-1a.82.82,0,0,0,0-.38c0-.06-.1-.1-.29-.16a.69.69,0,0,1-.47-.47,1.64,1.64,0,0,1,0-.58,2.73,2.73,0,0,1,1.07-1.81,6.1,6.1,0,0,1,1.8-1,6.63,6.63,0,0,0-1.65,1.16,2.46,2.46,0,0,0-.87,1.67,1.17,1.17,0,0,0,0,.43c0,.12.09.16.23.21s.41.09.53.37a1.16,1.16,0,0,1,0,.63c-.06.37-.22.7-.29,1a.87.87,0,0,0,.16.79,3.63,3.63,0,0,0,.67.7,1.14,1.14,0,0,1,.33.52.73.73,0,0,1-.14.65c-.24.32-.52.51-.65.75s0,.48.14.74a6.83,6.83,0,0,1,.65.8,1.79,1.79,0,0,1,.28,1.05,3.31,3.31,0,0,0,0,1A2,2,0,0,0,239.12,320.56Z" style="fill:#263238"></path></g><g style="opacity:0.2"><path d="M217,305.74a5.8,5.8,0,0,0,.42-2.3c0-.39,0-.79.1-1.19a1.32,1.32,0,0,1,.07-.32.5.5,0,0,1,.1-.19.27.27,0,0,1,.18-.07.26.26,0,0,1,.15.05,1.92,1.92,0,0,1,.38.54,2.45,2.45,0,0,0,.7.81c.14.05.15.06.22-.06a1.11,1.11,0,0,0,.09-.48c0-.74-.17-1.53-.18-2.36a2.72,2.72,0,0,1,.08-.63,1.6,1.6,0,0,1,.1-.31,1,1,0,0,0,0-.23,2.79,2.79,0,0,0-.19-1.07c-.12-.36-.28-.72-.44-1.08l-.25-.54a.61.61,0,0,1,0-.41.53.53,0,0,1,.28-.32c.21-.11.42-.15.53-.23s0,0,0-.08a.51.51,0,0,0-.12-.21,6.3,6.3,0,0,0-.8-.84c-.56-.54-1.17-1.05-1.77-1.57.67.43,1.3.91,1.92,1.4a6.87,6.87,0,0,1,.88.83,1,1,0,0,1,.19.3.4.4,0,0,1-.13.43c-.22.15-.42.19-.55.28s-.12.1-.06.26l.25.53c.17.36.34.73.48,1.11a3.16,3.16,0,0,1,.23,1.25,1.05,1.05,0,0,1-.08.35,1.82,1.82,0,0,0-.07.25,2.35,2.35,0,0,0-.06.54c0,.76.14,1.53.14,2.37a1.5,1.5,0,0,1-.15.66.53.53,0,0,1-.35.28.57.57,0,0,1-.42-.07,2.3,2.3,0,0,1-.81-1,2.82,2.82,0,0,0-.26-.44s.08,0,.07,0,0,0,0,.07a1.38,1.38,0,0,0-.07.26c-.07.37-.1.77-.16,1.16s-.11.79-.2,1.18A2.77,2.77,0,0,1,217,305.74Z" style="fill:#263238"></path></g><g style="opacity:0.2"><path d="M206.35,287.78a8.24,8.24,0,0,1-.79-.67l-.16-.16.25-.05a4.14,4.14,0,0,1,1.22-.1l-.23.16.08-.33,0-.17h.18a6.62,6.62,0,0,0,1.73-.27l.9-.18c.3-.07.63,0,.86-.24-.16.29-.53.36-.79.48l-.86.32a4.77,4.77,0,0,1-1.86.33l.23-.16-.1.32-.05.18-.18,0a6.13,6.13,0,0,0-1.14-.06l.09-.21C206,287.21,206.16,287.49,206.35,287.78Z" style="fill:#263238"></path></g></g><g id="freepik--Hair--inject-51"><path d="M252.88,252.08a1,1,0,0,1,.65.71,1.92,1.92,0,0,1,0,1,5.22,5.22,0,0,1-1,1.7,6,6,0,0,0-1,1.5.86.86,0,0,0,0,.78,1.26,1.26,0,0,0,.75.46,1.24,1.24,0,0,1-.93-.32,1.15,1.15,0,0,1-.17-1,4.93,4.93,0,0,1,1-1.69,6.39,6.39,0,0,0,1-1.51A1.26,1.26,0,0,0,252.88,252.08Z" style="fill:#263238"></path><path d="M221.25,330.13a1,1,0,0,1,.65.71,2,2,0,0,1,0,1,5.28,5.28,0,0,1-1,1.69,6,6,0,0,0-1,1.5.86.86,0,0,0,0,.78,1.21,1.21,0,0,0,.75.46,1.2,1.2,0,0,1-.93-.32,1.14,1.14,0,0,1-.17-1,4.75,4.75,0,0,1,1-1.69,6.65,6.65,0,0,0,1-1.52A1.26,1.26,0,0,0,221.25,330.13Z" style="fill:#263238"></path><path d="M270.92,268.07c.26-.07.52.23.49.53a1.21,1.21,0,0,1-.41.71c-.39.35-.87.55-1.18.84a.91.91,0,0,0-.35,1c.15.37.7.65.83,1.16-.29-.41-.79-.5-1.14-1a1,1,0,0,1-.11-.87,1.65,1.65,0,0,1,.46-.69,9.1,9.1,0,0,1,1.27-.78.89.89,0,0,0,.41-.47A.37.37,0,0,0,270.92,268.07Z" style="fill:#263238"></path><path d="M295.09,312.8c.27-.07.52.24.5.53a1.23,1.23,0,0,1-.42.71c-.39.36-.86.55-1.18.84a.93.93,0,0,0-.35,1c.16.37.7.65.83,1.16-.29-.41-.79-.49-1.14-1a1,1,0,0,1-.11-.86,1.68,1.68,0,0,1,.46-.7,10.94,10.94,0,0,1,1.27-.78.86.86,0,0,0,.41-.46A.37.37,0,0,0,295.09,312.8Z" style="fill:#263238"></path><path d="M287.11,285.5a.34.34,0,0,1,.43,0,.75.75,0,0,1,.32.36,1.09,1.09,0,0,1-.17.94,2.58,2.58,0,0,1-1.58.9,11.43,11.43,0,0,0-1.63.38,2,2,0,0,0-1.18,1.05,1.79,1.79,0,0,1,1-1.38,6.63,6.63,0,0,1,1.67-.5,2.67,2.67,0,0,0,1.4-.67.83.83,0,0,0,.23-.66C287.61,285.68,287.39,285.38,287.11,285.5Z" style="fill:#263238"></path><path d="M218.89,276.12a.69.69,0,0,1,.41-.69,1.14,1.14,0,0,1,.87,0,2.08,2.08,0,0,1,1.14,1.22,2.44,2.44,0,0,1,.15.84c0,.28-.06.54-.09.78a1,1,0,0,0,.14.65.55.55,0,0,0,.61.29.64.64,0,0,1-.78-.14,1.21,1.21,0,0,1-.32-.8,3.77,3.77,0,0,0-.14-1.46,2.11,2.11,0,0,0-.86-1.07.87.87,0,0,0-.64-.12A.61.61,0,0,0,218.89,276.12Z" style="fill:#263238"></path><path d="M248.92,348.38a.67.67,0,0,1,.41-.68,1.1,1.1,0,0,1,.87,0,2.15,2.15,0,0,1,1.15,1.22,2.45,2.45,0,0,1,.14.85c0,.28-.06.53-.08.77a1,1,0,0,0,.13.66.58.58,0,0,0,.61.29.64.64,0,0,1-.78-.15,1.19,1.19,0,0,1-.32-.8,3.77,3.77,0,0,0-.14-1.46,2.09,2.09,0,0,0-.86-1.06.87.87,0,0,0-.64-.13A.61.61,0,0,0,248.92,348.38Z" style="fill:#263238"></path><path d="M164.6,278a.67.67,0,0,1,.41-.68,1.14,1.14,0,0,1,.87,0,2.11,2.11,0,0,1,1.14,1.22,2.45,2.45,0,0,1,.15.85c0,.28-.06.53-.09.77a.93.93,0,0,0,.14.66.58.58,0,0,0,.61.29.64.64,0,0,1-.78-.15,1.18,1.18,0,0,1-.32-.79,3.77,3.77,0,0,0-.14-1.46,2.07,2.07,0,0,0-.86-1.07.87.87,0,0,0-.64-.13A.61.61,0,0,0,164.6,278Z" style="fill:#263238"></path><path d="M183.93,303.68a1.72,1.72,0,0,1,.51-2.16,1.89,1.89,0,0,1,2.35.14c.29.31.47.47.79.43a1.16,1.16,0,0,0,.8-.48,4,4,0,0,0,.5-1,9.48,9.48,0,0,0,.37-1.06,4.84,4.84,0,0,1-.58,2.23,1.5,1.5,0,0,1-1,.71,1,1,0,0,1-.68-.14,2.39,2.39,0,0,1-.46-.39,1.58,1.58,0,0,0-1.84-.19A1.72,1.72,0,0,0,183.93,303.68Z" style="fill:#263238"></path><path d="M193.38,245.73a3.46,3.46,0,0,1,2.33.88,1.86,1.86,0,0,1,.46,1.27,1.35,1.35,0,0,1-.25.68,1.76,1.76,0,0,1-.51.45,1.77,1.77,0,0,0-.68,1.94,6.68,6.68,0,0,0,1.09,2.12,5,5,0,0,1-1.44-2,2.46,2.46,0,0,1,0-1.32,1.87,1.87,0,0,1,.8-1.08,1,1,0,0,0,.58-.8,1.52,1.52,0,0,0-.3-1A4.16,4.16,0,0,0,193.38,245.73Z" style="fill:#263238"></path><path d="M212.78,230.62a2,2,0,0,1,1.94-.91,2.18,2.18,0,0,1,1.77,1.38c.3.79,0,1.51.23,2.14a3.35,3.35,0,0,0,1.09,1.73,2.85,2.85,0,0,1-1.43-1.63c-.28-.73-.06-1.52-.32-2.07a1.93,1.93,0,0,0-1.4-1.2A2.14,2.14,0,0,0,212.78,230.62Z" style="fill:#263238"></path><path d="M262.07,327.44a1.64,1.64,0,0,1,.17-1.06,4.05,4.05,0,0,1,.66-.88,2.65,2.65,0,0,1,.9-.71.8.8,0,0,1,.69.09,1.23,1.23,0,0,1,.43.48,2.49,2.49,0,0,1,.13,1.15,2.35,2.35,0,0,0,.11,1,2.39,2.39,0,0,0,1.39,1.41,2.19,2.19,0,0,1-1.71-1.27c-.39-.71-.09-1.56-.34-2.05-.12-.26-.35-.43-.57-.36a3.22,3.22,0,0,0-.79.56A2.56,2.56,0,0,0,262.07,327.44Z" style="fill:#263238"></path><g style="isolation:isolate;opacity:0.5"><path d="M252.88,252.08a1,1,0,0,1,.65.71,1.92,1.92,0,0,1,0,1,5.22,5.22,0,0,1-1,1.7,6,6,0,0,0-1,1.5.86.86,0,0,0,0,.78,1.26,1.26,0,0,0,.75.46,1.24,1.24,0,0,1-.93-.32,1.15,1.15,0,0,1-.17-1,4.93,4.93,0,0,1,1-1.69,6.39,6.39,0,0,0,1-1.51A1.26,1.26,0,0,0,252.88,252.08Z" style="fill:#fff"></path><path d="M221.25,330.13a1,1,0,0,1,.65.71,2,2,0,0,1,0,1,5.28,5.28,0,0,1-1,1.69,6,6,0,0,0-1,1.5.86.86,0,0,0,0,.78,1.21,1.21,0,0,0,.75.46,1.2,1.2,0,0,1-.93-.32,1.14,1.14,0,0,1-.17-1,4.75,4.75,0,0,1,1-1.69,6.65,6.65,0,0,0,1-1.52A1.26,1.26,0,0,0,221.25,330.13Z" style="fill:#fff"></path><path d="M270.92,268.07c.26-.07.52.23.49.53a1.21,1.21,0,0,1-.41.71c-.39.35-.87.55-1.18.84a.91.91,0,0,0-.35,1c.15.37.7.65.83,1.16-.29-.41-.79-.5-1.14-1a1,1,0,0,1-.11-.87,1.65,1.65,0,0,1,.46-.69,9.1,9.1,0,0,1,1.27-.78.89.89,0,0,0,.41-.47A.37.37,0,0,0,270.92,268.07Z" style="fill:#fff"></path><path d="M295.09,312.8c.27-.07.52.24.5.53a1.23,1.23,0,0,1-.42.71c-.39.36-.86.55-1.18.84a.93.93,0,0,0-.35,1c.16.37.7.65.83,1.16-.29-.41-.79-.49-1.14-1a1,1,0,0,1-.11-.86,1.68,1.68,0,0,1,.46-.7,10.94,10.94,0,0,1,1.27-.78.86.86,0,0,0,.41-.46A.37.37,0,0,0,295.09,312.8Z" style="fill:#fff"></path><path d="M287.11,285.5a.34.34,0,0,1,.43,0,.75.75,0,0,1,.32.36,1.09,1.09,0,0,1-.17.94,2.58,2.58,0,0,1-1.58.9,11.43,11.43,0,0,0-1.63.38,2,2,0,0,0-1.18,1.05,1.79,1.79,0,0,1,1-1.38,6.63,6.63,0,0,1,1.67-.5,2.67,2.67,0,0,0,1.4-.67.83.83,0,0,0,.23-.66C287.61,285.68,287.39,285.38,287.11,285.5Z" style="fill:#fff"></path><path d="M218.89,276.12a.69.69,0,0,1,.41-.69,1.14,1.14,0,0,1,.87,0,2.08,2.08,0,0,1,1.14,1.22,2.44,2.44,0,0,1,.15.84c0,.28-.06.54-.09.78a1,1,0,0,0,.14.65.55.55,0,0,0,.61.29.64.64,0,0,1-.78-.14,1.21,1.21,0,0,1-.32-.8,3.77,3.77,0,0,0-.14-1.46,2.11,2.11,0,0,0-.86-1.07.87.87,0,0,0-.64-.12A.61.61,0,0,0,218.89,276.12Z" style="fill:#fff"></path><path d="M248.92,348.38a.67.67,0,0,1,.41-.68,1.1,1.1,0,0,1,.87,0,2.15,2.15,0,0,1,1.15,1.22,2.45,2.45,0,0,1,.14.85c0,.28-.06.53-.08.77a1,1,0,0,0,.13.66.58.58,0,0,0,.61.29.64.64,0,0,1-.78-.15,1.19,1.19,0,0,1-.32-.8,3.77,3.77,0,0,0-.14-1.46,2.09,2.09,0,0,0-.86-1.06.87.87,0,0,0-.64-.13A.61.61,0,0,0,248.92,348.38Z" style="fill:#fff"></path><path d="M164.6,278a.67.67,0,0,1,.41-.68,1.14,1.14,0,0,1,.87,0,2.11,2.11,0,0,1,1.14,1.22,2.45,2.45,0,0,1,.15.85c0,.28-.06.53-.09.77a.93.93,0,0,0,.14.66.58.58,0,0,0,.61.29.64.64,0,0,1-.78-.15,1.18,1.18,0,0,1-.32-.79,3.77,3.77,0,0,0-.14-1.46,2.07,2.07,0,0,0-.86-1.07.87.87,0,0,0-.64-.13A.61.61,0,0,0,164.6,278Z" style="fill:#fff"></path><path d="M183.93,303.68a1.72,1.72,0,0,1,.51-2.16,1.89,1.89,0,0,1,2.35.14c.29.31.47.47.79.43a1.16,1.16,0,0,0,.8-.48,4,4,0,0,0,.5-1,9.48,9.48,0,0,0,.37-1.06,4.84,4.84,0,0,1-.58,2.23,1.5,1.5,0,0,1-1,.71,1,1,0,0,1-.68-.14,2.39,2.39,0,0,1-.46-.39,1.58,1.58,0,0,0-1.84-.19A1.72,1.72,0,0,0,183.93,303.68Z" style="fill:#fff"></path><path d="M193.38,245.73a3.46,3.46,0,0,1,2.33.88,1.86,1.86,0,0,1,.46,1.27,1.35,1.35,0,0,1-.25.68,1.76,1.76,0,0,1-.51.45,1.77,1.77,0,0,0-.68,1.94,6.68,6.68,0,0,0,1.09,2.12,5,5,0,0,1-1.44-2,2.46,2.46,0,0,1,0-1.32,1.87,1.87,0,0,1,.8-1.08,1,1,0,0,0,.58-.8,1.52,1.52,0,0,0-.3-1A4.16,4.16,0,0,0,193.38,245.73Z" style="fill:#fff"></path><path d="M212.78,230.62a2,2,0,0,1,1.94-.91,2.18,2.18,0,0,1,1.77,1.38c.3.79,0,1.51.23,2.14a3.35,3.35,0,0,0,1.09,1.73,2.85,2.85,0,0,1-1.43-1.63c-.28-.73-.06-1.52-.32-2.07a1.93,1.93,0,0,0-1.4-1.2A2.14,2.14,0,0,0,212.78,230.62Z" style="fill:#fff"></path><path d="M262.07,327.44a1.64,1.64,0,0,1,.17-1.06,4.05,4.05,0,0,1,.66-.88,2.65,2.65,0,0,1,.9-.71.8.8,0,0,1,.69.09,1.23,1.23,0,0,1,.43.48,2.49,2.49,0,0,1,.13,1.15,2.35,2.35,0,0,0,.11,1,2.39,2.39,0,0,0,1.39,1.41,2.19,2.19,0,0,1-1.71-1.27c-.39-.71-.09-1.56-.34-2.05-.12-.26-.35-.43-.57-.36a3.22,3.22,0,0,0-.79.56A2.56,2.56,0,0,0,262.07,327.44Z" style="fill:#fff"></path></g></g><g id="freepik--Table--inject-51"><polygon points="423.61 418.2 417.76 418.2 415.37 399.95 425.4 399.95 423.61 418.2" style="fill:#263238"></polygon><polygon points="388.79 418.2 382.95 418.2 380.56 399.95 390.58 399.95 388.79 418.2" style="fill:#263238"></polygon><polygon points="374.98 418.2 369.13 418.2 366.74 399.95 376.77 399.95 374.98 418.2" style="fill:#263238"></polygon><polygon points="340.16 418.2 334.32 418.2 331.93 399.95 341.95 399.95 340.16 418.2" style="fill:#263238"></polygon><polygon points="388.79 418.2 382.95 418.2 380.56 399.95 390.58 399.95 388.79 418.2" style="fill:#fff;isolation:isolate;opacity:0.2"></polygon><polygon points="340.16 418.2 334.32 418.2 331.93 399.95 341.95 399.95 340.16 418.2" style="fill:#fff;isolation:isolate;opacity:0.2"></polygon><path d="M426.43,406.38H331.34a.94.94,0,0,1-.94-.86l-.53-6.72h98l-.53,6.72A.94.94,0,0,1,426.43,406.38Z" style="fill:#263238"></path><path d="M389.06,406.38H331.34a.94.94,0,0,1-.94-.86l-.53-6.72h60.65l-.53,6.72A.92.92,0,0,1,389.06,406.38Z" style="fill:#fff;isolation:isolate;opacity:0.2"></path><rect x="328.44" y="343.68" width="101.58" height="60.14" rx="3.53" style="fill:#263238"></rect><rect x="328.44" y="343.68" width="101.58" height="60.13" rx="3.52" style="fill:#fff;isolation:isolate;opacity:0.6000000000000001"></rect><rect x="328.44" y="343.68" width="63.44" height="60.13" rx="3.52" style="fill:#fff;isolation:isolate;opacity:0.6000000000000001"></rect><rect x="332.3" y="347.07" width="55.72" height="16.49" rx="1.13" style="isolation:isolate;opacity:0.2"></rect><path d="M386.13,347.83h-18v.83a1.23,1.23,0,0,1-1.22,1.23H353.44a1.23,1.23,0,0,1-1.23-1.23v-.83h-18a1.14,1.14,0,0,0-1.13,1.13v12.71a1.14,1.14,0,0,0,1.13,1.13h51.94a1.14,1.14,0,0,0,1.13-1.13V349A1.14,1.14,0,0,0,386.13,347.83Z" style="fill:#fff;isolation:isolate;opacity:0.2"></path><rect x="332.3" y="365.38" width="55.72" height="16.49" rx="1.13" style="isolation:isolate;opacity:0.2"></rect><path d="M386.13,366.14h-18V367a1.22,1.22,0,0,1-1.22,1.22H353.44a1.22,1.22,0,0,1-1.23-1.22v-.83h-18a1.14,1.14,0,0,0-1.13,1.13V380a1.13,1.13,0,0,0,1.13,1.12h51.94a1.13,1.13,0,0,0,1.13-1.12V367.27A1.14,1.14,0,0,0,386.13,366.14Z" style="fill:#fff;isolation:isolate;opacity:0.2"></path><rect x="332.3" y="383.68" width="55.72" height="16.49" rx="1.13" style="isolation:isolate;opacity:0.2"></rect><path d="M386.13,384.45h-18v.82a1.23,1.23,0,0,1-1.22,1.23H353.44a1.23,1.23,0,0,1-1.23-1.23v-.82h-18a1.13,1.13,0,0,0-1.13,1.12v12.71a1.13,1.13,0,0,0,1.13,1.13h51.94a1.13,1.13,0,0,0,1.13-1.13V385.57A1.13,1.13,0,0,0,386.13,384.45Z" style="fill:#fff;isolation:isolate;opacity:0.2"></path><path d="M366.18,331s-2.43-2.78-1.41-5.2,2.78-.86,2.78-2.61-2.45-3.43-1.52-5,3.75-3.2,3.75-3.2,1.28,4.76,1.67,5.62a4.08,4.08,0,0,0,3.34,2.41c1.74,0,1.94,1.38,3.79,2.55A75.65,75.65,0,0,1,386,331C386.49,331.58,366.18,331,366.18,331Z" style="fill:#407BFF"></path><path d="M386.05,331c.28.38-8.08.27-14.05.14l-5.82-.14s-2.43-2.77-1.41-5.19,2.78-.86,2.78-2.62-2.45-3.43-1.52-5,3.75-3.2,3.75-3.2,1.29,4.75,1.67,5.61a4.12,4.12,0,0,0,.57.9h0a3.65,3.65,0,0,0,2.76,1.5c1.74,0,1.94,1.38,3.79,2.56A80.28,80.28,0,0,1,386.05,331Z" style="fill:#fff;isolation:isolate;opacity:0.6000000000000001"></path><path d="M386.05,331c.28.38-8.08.27-14.05.14-.77-.7-1.26-1.19-1.26-1.19a28,28,0,0,1-1.83-4.55c-.19-1.23,4.63,2.54,5.15,3.06a22.36,22.36,0,0,0,3.58,1.82h2.87a41.4,41.4,0,0,0-4.76-5.66c-1.75-1.43-3-1.92-3.72-3.15a3.65,3.65,0,0,0,2.76,1.5c1.74,0,1.94,1.38,3.79,2.56A80.28,80.28,0,0,1,386.05,331Z" style="opacity:0.2"></path><rect x="351.01" y="329.31" width="45.44" height="14.18" style="fill:#407BFF"></rect><rect x="368.91" y="329.31" width="27.54" height="14.18" style="opacity:0.2"></rect></g></svg>